<?xml version="1.0" encoding="iso-8859-1"?>
<!-- Generator: Adobe Illustrator 21.1.0, SVG Export Plug-In . SVG Version: 6.00 Build 0)  -->
<svg version="1.1" id="Layer_1" xmlns="http://www.w3.org/2000/svg" xmlns:xlink="http://www.w3.org/1999/xlink" x="0px" y="0px"
	 viewBox="0 0 100.353 100.353" style="enable-background:new 0 0 100.353 100.353;" xml:space="preserve">
<path d="M86.082,46.972c0-0.007-0.002-0.014-0.002-0.021c-0.01-0.193-0.054-0.376-0.13-0.543c-0.001-0.003-0.003-0.005-0.004-0.008
	c-0.083-0.178-0.198-0.336-0.34-0.468c-0.003-0.003-0.004-0.006-0.007-0.009L70.951,32.489c-0.34-2.858-2.334-5.212-4.998-6.074
	c0.343-2.063,1.712-6.22,7.194-6.771c0.824-0.083,1.425-0.818,1.342-1.643c-0.082-0.825-0.831-1.418-1.643-1.342
	c-6.903,0.695-9.377,5.861-9.898,9.442c-2.522,0.264-4.66,1.823-5.751,3.994L14.439,45.619c-0.012,0.004-0.021,0.011-0.033,0.016
	c-0.052,0.02-0.101,0.046-0.15,0.072c-0.039,0.021-0.08,0.04-0.117,0.063c-0.042,0.027-0.079,0.059-0.118,0.09
	c-0.038,0.03-0.077,0.058-0.111,0.092c-0.034,0.033-0.063,0.07-0.094,0.106c-0.031,0.037-0.064,0.072-0.092,0.111
	c-0.028,0.04-0.051,0.084-0.075,0.127c-0.023,0.041-0.047,0.08-0.066,0.122c-0.02,0.044-0.033,0.09-0.048,0.136
	c-0.016,0.047-0.033,0.093-0.044,0.142c-0.009,0.042-0.013,0.085-0.019,0.128c-0.008,0.056-0.016,0.112-0.017,0.17
	c0,0.012-0.003,0.023-0.003,0.034v30.562c0,0.828,0.671,1.5,1.5,1.5h69.637c0.828,0,1.5-0.672,1.5-1.5V47.029
	C86.088,47.009,86.083,46.991,86.082,46.972z M63.044,54.187c-3.211,0-5.823,2.626-5.823,5.854c0,1.568-1.265,2.845-2.819,2.845
	c-1.553,0-2.815-1.273-2.819-2.838c0-0.001,0-0.002,0-0.003c0-3.229-2.611-5.854-5.821-5.854c-3.212,0-5.825,2.626-5.825,5.854
	c0,1.568-1.266,2.845-2.821,2.845c-1.556,0-2.821-1.276-2.821-2.845c0,0,0-0.001,0-0.001s0-0.001,0-0.001
	c0-3.229-2.61-5.854-5.819-5.854c-3.21,0-5.821,2.626-5.821,5.854c0,1.568-1.267,2.845-2.825,2.845
	c-1.658,0-3.226-1.383-3.226-2.845c0-0.233-0.058-0.451-0.153-0.648V48.529h66.637v6.226c-0.762-0.376-1.674-0.565-2.752-0.565
	c-0.003,0-0.006,0-0.01,0c-3.209,0.005-5.82,2.632-5.82,5.854c0,1.568-1.265,2.845-2.818,2.845c-1.557,0-2.823-1.276-2.823-2.845
	c0,0,0-0.001,0-0.001s0-0.001,0-0.001C68.864,56.813,66.253,54.187,63.044,54.187z M63.713,40.647c3.046,0,5.659-1.879,6.749-4.537
	l10.269,9.419H23.478L56.43,33.565C56.543,37.488,59.763,40.647,63.713,40.647z M63.713,29.059c2.368,0,4.294,1.926,4.294,4.294
	c0,2.368-1.926,4.294-4.294,4.294s-4.294-1.926-4.294-4.294C59.419,30.985,61.345,29.059,63.713,29.059z M16.451,76.091V64.886
	c0.987,0.626,2.155,1,3.379,1c3.212,0,5.825-2.622,5.825-5.845c0-1.574,1.266-2.854,2.821-2.854c1.554,0,2.819,1.28,2.819,2.854
	c0,0,0,0.001,0,0.001s0,0.001,0,0.001c0,3.223,2.611,5.845,5.821,5.845c3.209,0,5.821-2.622,5.821-5.845
	c0-1.574,1.267-2.854,2.825-2.854c1.554,0,2.817,1.277,2.821,2.848c0,0.001,0,0.002,0,0.003c0,3.223,2.61,5.845,5.819,5.845
	s5.819-2.622,5.819-5.845c0-1.574,1.267-2.854,2.823-2.854c1.555,0,2.82,1.28,2.82,2.854c0,0,0,0.001,0,0.001s0,0.001,0,0.001
	c0,3.223,2.612,5.845,5.823,5.845c3.208,0,5.818-2.622,5.818-5.845c0-1.571,1.268-2.852,2.824-2.854c0.003,0,0.005,0,0.007,0
	c1.305,0,1.731,0.371,1.999,0.771c0.497,0.745,0.749,2.209,0.749,4.349c0,0.01,0.003,0.019,0.003,0.029v13.752H16.451z"/>
</svg>
